# xmcd
#
# Track frame offsets:
#	150
#	24451
#	44215
#	65195
#	97813
#	114977
#	129153
#	141917
#	162063
#	180344
#	192300
#	216503
#
# Disc length: 3173 seconds
#
# Revision: 1
# Processed by: cddbd v1.5.2PL0 Copyright (c) Steve Scherf et al.
# Submitted via: audiograbber 1.82.01
#
DISCID=aa0c630c
DTITLE=The Little River Band - After Hours
DYEAR=1976
DGENRE=Pop
TTITLE0=Seine City
TTITLE1=Bourbon Street
TTITLE2=Sweet Old Fashioned Man
TTITLE3=Country Girls
TTITLE4=The Drifter
TTITLE5=L.a. In The Sunshine
TTITLE6=Witchery
TTITLE7=Raelene Raelene
TTITLE8=Changed And Different
TTITLE9=The Butterfly [live]
TTITLE10=Days On The Road [live]
TTITLE11=Long Jumping Jeweller 
EXTD=
EXTT0=
EXTT1=
EXTT2=
EXTT3=
EXTT4=
EXTT5=
EXTT6=
EXTT7=
EXTT8=
EXTT9=
EXTT10=
EXTT11=
PLAYORDER=
